<svg xmlns="http://www.w3.org/2000/svg" width="74.381" height="42.28" viewBox="0 0 74.381 42.28">
  <g id="Group_23173" data-name="Group 23173" transform="translate(-0.01 -0.51)">
    <g id="Group_23173-2" data-name="Group 23173">
      <path id="Path_2966" data-name="Path 2966" d="M4.2.7h0a5.8,5.8,0,0,1,7,4l8.4,30.9a5.8,5.8,0,0,1-4,7h0a5.8,5.8,0,0,1-7-4L.2,7.7A5.758,5.758,0,0,1,4.2.7Z"/>
      <path id="Path_2967" data-name="Path 2967" d="M22.5.7h0a5.8,5.8,0,0,1,7,4l8.4,30.9a5.8,5.8,0,0,1-4,7h0a5.8,5.8,0,0,1-7-4L18.6,7.7A5.663,5.663,0,0,1,22.5.7Z"/>
      <path id="Path_2968" data-name="Path 2968" d="M58.8.7h0a5.8,5.8,0,0,1,7,4l8.4,30.9a5.8,5.8,0,0,1-4,7h0a5.8,5.8,0,0,1-7-4L54.9,7.7A5.62,5.62,0,0,1,58.8.7Z"/>
    </g>
    <circle id="Ellipse_19" data-name="Ellipse 19" cx="5.9" cy="5.9" r="5.9" transform="translate(40.7 15.7)"/>
  </g>
</svg>
